<?xml version="1.0" encoding="UTF-8"?>
<svg width="792px" height="443px" viewBox="0 0 792 443" version="1.1" xmlns="http://www.w3.org/2000/svg" xmlns:xlink="http://www.w3.org/1999/xlink">
    <!-- Generator: Sketch 63.1 (92452) - https://sketch.com -->
    <title>general-population</title>
    <desc>Created with Sketch.</desc>
    <g id="general-population" stroke="none" stroke-width="1" fill="none" fill-rule="evenodd">
        <rect fill="#FFFFFF" x="0" y="0" width="792" height="443"></rect>
        <rect id="Rectangle" fill="#F5F6FA" x="90" y="40" width="376" height="363" rx="22"></rect>
        <rect id="Rectangle-Copy" fill="#F5F6FA" x="502" y="40" width="200" height="363" rx="22"></rect>
        <g id="Group-Copy-5" transform="translate(366.000000, 116.000000)">
            <ellipse id="Oval-Copy-26" fill="#D8D8D8" cx="26" cy="55.5" rx="26" ry="9.5"></ellipse>
            <circle id="Oval-Copy-27" fill="#636F80" cx="26" cy="14" r="14"></circle>
            <path d="M44,50.3847763 C44,40.2311447 35.9411255,32 26,32 C16.0588745,32 8,40.2311447 8,50.3847763 C8,60.5384079 44,60.5384079 44,50.3847763 Z" id="Oval-Copy-34" fill="#636F80"></path>
        </g>
        <g id="Group-Copy-11" transform="translate(536.000000, 139.000000)">
            <ellipse id="Oval-Copy-26" fill="#D8D8D8" cx="26" cy="55.5" rx="26" ry="9.5"></ellipse>
            <circle id="Oval-Copy-27" fill="#636F80" cx="26" cy="14" r="14"></circle>
            <path d="M44,50.3847763 C44,40.2311447 35.9411255,32 26,32 C16.0588745,32 8,40.2311447 8,50.3847763 C8,60.5384079 44,60.5384079 44,50.3847763 Z" id="Oval-Copy-34" fill="#636F80"></path>
        </g>
        <g id="Group-Copy-12" transform="translate(536.000000, 240.000000)">
            <ellipse id="Oval-Copy-26" fill="#D8D8D8" cx="26" cy="55.5" rx="26" ry="9.5"></ellipse>
            <circle id="Oval-Copy-27" fill="#636F80" cx="26" cy="14" r="14"></circle>
            <path d="M44,50.3847763 C44,40.2311447 35.9411255,32 26,32 C16.0588745,32 8,40.2311447 8,50.3847763 C8,60.5384079 44,60.5384079 44,50.3847763 Z" id="Oval-Copy-34" fill="#636F80"></path>
        </g>
        <g id="Group-Copy-6" transform="translate(366.000000, 209.000000)">
            <ellipse id="Oval-Copy-26" fill="#D8D8D8" cx="26" cy="55.5" rx="26" ry="9.5"></ellipse>
            <circle id="Oval-Copy-27" fill="#636F80" cx="26" cy="14" r="14"></circle>
            <path d="M44,50.3847763 C44,40.2311447 35.9411255,32 26,32 C16.0588745,32 8,40.2311447 8,50.3847763 C8,60.5384079 44,60.5384079 44,50.3847763 Z" id="Oval-Copy-34" fill="#636F80"></path>
        </g>
        <g id="Group-Copy-7" transform="translate(290.000000, 209.000000)">
            <ellipse id="Oval-Copy-26" fill="#D8D8D8" cx="26" cy="55.5" rx="26" ry="9.5"></ellipse>
            <circle id="Oval-Copy-27" fill="#636F80" cx="26" cy="14" r="14"></circle>
            <path d="M44,50.3847763 C44,40.2311447 35.9411255,32 26,32 C16.0588745,32 8,40.2311447 8,50.3847763 C8,60.5384079 44,60.5384079 44,50.3847763 Z" id="Oval-Copy-34" fill="#636F80"></path>
        </g>
        <g id="Group-Copy-8" transform="translate(214.000000, 209.000000)">
            <ellipse id="Oval-Copy-26" fill="#D8D8D8" cx="26" cy="55.5" rx="26" ry="9.5"></ellipse>
            <circle id="Oval-Copy-27" fill="#636F80" cx="26" cy="14" r="14"></circle>
            <path d="M44,50.3847763 C44,40.2311447 35.9411255,32 26,32 C16.0588745,32 8,40.2311447 8,50.3847763 C8,60.5384079 44,60.5384079 44,50.3847763 Z" id="Oval-Copy-34" fill="#636F80"></path>
        </g>
        <g id="Group-Copy-3" transform="translate(214.000000, 116.000000)">
            <ellipse id="Oval-Copy-26" fill="#D8D8D8" cx="26" cy="55.5" rx="26" ry="9.5"></ellipse>
            <circle id="Oval-Copy-27" fill="#636F80" cx="26" cy="14" r="14"></circle>
            <path d="M44,50.3847763 C44,40.2311447 35.9411255,32 26,32 C16.0588745,32 8,40.2311447 8,50.3847763 C8,60.5384079 44,60.5384079 44,50.3847763 Z" id="Oval-Copy-34" fill="#636F80"></path>
        </g>
        <g id="Group-Copy-10" transform="translate(290.000000, 302.000000)">
            <ellipse id="Oval-Copy-26" fill="#D8D8D8" cx="26" cy="55.5" rx="26" ry="9.5"></ellipse>
            <circle id="Oval-Copy-27" fill="#636F80" cx="26" cy="14" r="14"></circle>
            <path d="M44,50.3847763 C44,40.2311447 35.9411255,32 26,32 C16.0588745,32 8,40.2311447 8,50.3847763 C8,60.5384079 44,60.5384079 44,50.3847763 Z" id="Oval-Copy-34" fill="#636F80"></path>
        </g>
        <g id="Group-Copy-15" transform="translate(138.000000, 116.000000)">
            <ellipse id="Oval-Copy-26" fill="#D8D8D8" cx="26" cy="55.5" rx="26" ry="9.5"></ellipse>
            <circle id="Oval-Copy-27" fill="#73B0DE" cx="26" cy="14" r="14"></circle>
            <path d="M44,50.3847763 C44,40.2311447 35.9411255,32 26,32 C16.0588745,32 8,40.2311447 8,50.3847763 C8,60.5384079 44,60.5384079 44,50.3847763 Z" id="Oval-Copy-34" fill="#73B0DE"></path>
        </g>
        <g id="Group-Copy-18" transform="translate(612.000000, 240.000000)">
            <ellipse id="Oval-Copy-26" fill="#D8D8D8" cx="26" cy="55.5" rx="26" ry="9.5"></ellipse>
            <circle id="Oval-Copy-27" fill="#73B0DE" cx="26" cy="14" r="14"></circle>
            <path d="M44,50.3847763 C44,40.2311447 35.9411255,32 26,32 C16.0588745,32 8,40.2311447 8,50.3847763 C8,60.5384079 44,60.5384079 44,50.3847763 Z" id="Oval-Copy-34" fill="#73B0DE"></path>
        </g>
        <g id="Group-Copy-16" transform="translate(214.000000, 302.000000)">
            <ellipse id="Oval-Copy-26" fill="#D8D8D8" cx="26" cy="55.5" rx="26" ry="9.5"></ellipse>
            <circle id="Oval-Copy-27" fill="#73B0DE" cx="26" cy="14" r="14"></circle>
            <path d="M44,50.3847763 C44,40.2311447 35.9411255,32 26,32 C16.0588745,32 8,40.2311447 8,50.3847763 C8,60.5384079 44,60.5384079 44,50.3847763 Z" id="Oval-Copy-34" fill="#73B0DE"></path>
        </g>
        <g id="Group-Copy-17" transform="translate(366.000000, 302.000000)">
            <ellipse id="Oval-Copy-26" fill="#D8D8D8" cx="26" cy="55.5" rx="26" ry="9.5"></ellipse>
            <circle id="Oval-Copy-27" fill="#73B0DE" cx="26" cy="14" r="14"></circle>
            <path d="M44,50.3847763 C44,40.2311447 35.9411255,32 26,32 C16.0588745,32 8,40.2311447 8,50.3847763 C8,60.5384079 44,60.5384079 44,50.3847763 Z" id="Oval-Copy-34" fill="#73B0DE"></path>
        </g>
        <g id="Group-Copy" transform="translate(612.000000, 139.000000)">
            <ellipse id="Oval-Copy-26" fill="#D8D8D8" cx="26" cy="55.5" rx="26" ry="9.5"></ellipse>
            <circle id="Oval-Copy-27" fill="#F7931E" cx="26" cy="14" r="14"></circle>
            <path d="M44,50.3847763 C44,40.2311447 35.9411255,32 26,32 C16.0588745,32 8,40.2311447 8,50.3847763 C8,60.5384079 44,60.5384079 44,50.3847763 Z" id="Oval-Copy-34" fill="#F7931E"></path>
        </g>
        <g id="Group-Copy-4" transform="translate(290.000000, 116.000000)">
            <ellipse id="Oval-Copy-26" fill="#D8D8D8" cx="26" cy="55.5" rx="26" ry="9.5"></ellipse>
            <circle id="Oval-Copy-27" fill="#F7931E" cx="26" cy="14" r="14"></circle>
            <path d="M44,50.3847763 C44,40.2311447 35.9411255,32 26,32 C16.0588745,32 8,40.2311447 8,50.3847763 C8,60.5384079 44,60.5384079 44,50.3847763 Z" id="Oval-Copy-34" fill="#F7931E"></path>
        </g>
        <g id="Group-Copy-9" transform="translate(138.000000, 209.000000)">
            <ellipse id="Oval-Copy-26" fill="#D8D8D8" cx="26" cy="55.5" rx="26" ry="9.5"></ellipse>
            <circle id="Oval-Copy-27" fill="#F7931E" cx="26" cy="14" r="14"></circle>
            <path d="M44,50.3847763 C44,40.2311447 35.9411255,32 26,32 C16.0588745,32 8,40.2311447 8,50.3847763 C8,60.5384079 44,60.5384079 44,50.3847763 Z" id="Oval-Copy-34" fill="#F7931E"></path>
        </g>
        <g id="Group-Copy-13" transform="translate(138.000000, 302.000000)">
            <ellipse id="Oval-Copy-26" fill="#D8D8D8" cx="26" cy="55.5" rx="26" ry="9.5"></ellipse>
            <circle id="Oval-Copy-27" fill="#F7931E" cx="26" cy="14" r="14"></circle>
            <path d="M44,50.3847763 C44,40.2311447 35.9411255,32 26,32 C16.0588745,32 8,40.2311447 8,50.3847763 C8,60.5384079 44,60.5384079 44,50.3847763 Z" id="Oval-Copy-34" fill="#F7931E"></path>
        </g>
        <path d="M185.784,80 L185.784,70.64 L190.488,70.64 L190.488,69.504 L184.44,69.504 L184.44,80 L185.784,80 Z M193.752,80.192 C194.824,80.192 195.656,79.872 196.328,79.392 L195.864,78.544 C195.32,78.912 194.664,79.12 193.912,79.12 C192.44,79.12 191.464,78.064 191.352,76.464 L196.584,76.464 C196.632,76.208 196.648,75.968 196.648,75.68 C196.648,73.44 195.512,72.032 193.528,72.032 C191.752,72.032 190.04,73.584 190.04,76.112 C190.04,78.688 191.672,80.192 193.752,80.192 Z M195.464,75.44 L191.352,75.44 C191.512,73.952 192.472,73.088 193.56,73.088 C194.744,73.088 195.464,73.904 195.464,75.44 Z M199.88,80 L199.88,76.544 L203.608,76.544 L203.608,80 L204.936,80 L204.936,72.224 L203.608,72.224 L203.608,75.376 L199.88,75.376 L199.88,72.224 L198.552,72.224 L198.552,80 L199.88,80 Z M210.68,80.192 C211.752,80.192 212.584,79.872 213.256,79.392 L212.792,78.544 C212.248,78.912 211.592,79.12 210.84,79.12 C209.368,79.12 208.392,78.064 208.28,76.464 L213.512,76.464 C213.56,76.208 213.576,75.968 213.576,75.68 C213.576,73.44 212.44,72.032 210.456,72.032 C208.68,72.032 206.968,73.584 206.968,76.112 C206.968,78.688 208.6,80.192 210.68,80.192 Z M212.392,75.44 L208.28,75.44 C208.44,73.952 209.4,73.088 210.488,73.088 C211.672,73.088 212.392,73.904 212.392,75.44 Z M216.808,83.28 L216.808,80.656 L216.776,79.296 C217.48,79.856 218.216,80.192 218.92,80.192 C220.696,80.192 222.296,78.64 222.296,76 C222.296,73.584 221.208,72.032 219.208,72.032 C218.312,72.032 217.432,72.528 216.728,73.12 L216.68,73.12 L216.568,72.224 L215.48,72.224 L215.48,83.28 L216.808,83.28 Z M218.696,79.072 C218.184,79.072 217.512,78.864 216.808,78.272 L216.808,74.208 C217.56,73.504 218.216,73.152 218.872,73.152 C220.328,73.152 220.92,74.288 220.92,76 C220.92,77.92 219.976,79.072 218.696,79.072 Z M225.928,80.192 C226.904,80.192 227.752,79.696 228.488,79.072 L228.536,79.072 L228.664,80 L229.752,80 L229.752,75.216 C229.752,73.296 228.936,72.032 227.048,72.032 C225.8,72.032 224.712,72.56 223.992,73.04 L224.504,73.936 C225.112,73.536 225.928,73.136 226.824,73.136 C228.088,73.136 228.408,74.08 228.424,75.056 C225.096,75.424 223.656,76.256 223.656,77.984 C223.656,79.392 224.632,80.192 225.928,80.192 Z M226.296,79.104 C225.544,79.104 224.952,78.768 224.952,77.904 C224.952,76.896 225.8,76.304 228.424,76 L228.424,78.112 C227.672,78.768 227.048,79.104 226.296,79.104 Z M231.784,80.144 C232.92,80.144 233.624,79.296 233.848,77.6 C234.024,76.176 234.184,74.736 234.36,73.296 L236.76,73.296 L236.76,80 L238.088,80 L238.088,72.224 L233.304,72.224 C233.112,73.904 232.92,75.584 232.712,77.264 C232.568,78.368 232.216,78.864 231.672,78.864 C231.528,78.864 231.416,78.832 231.32,78.8 L231.064,80.016 C231.288,80.112 231.48,80.144 231.784,80.144 Z M243.496,80 C245.336,80 246.584,79.248 246.584,77.52 C246.584,75.808 245.336,75.088 243.496,75.088 L242.04,75.088 L242.04,72.224 L240.712,72.224 L240.712,80 L243.496,80 Z M243.352,78.944 L242.04,78.944 L242.04,76.112 L243.352,76.112 C244.664,76.112 245.288,76.544 245.288,77.52 C245.288,78.496 244.664,78.944 243.352,78.944 Z M249.896,80 L249.896,76.544 L253.624,76.544 L253.624,80 L254.952,80 L254.952,72.224 L253.624,72.224 L253.624,75.376 L249.896,75.376 L249.896,72.224 L248.568,72.224 L248.568,80 L249.896,80 Z M259.352,80.192 C260.328,80.192 261.176,79.696 261.912,79.072 L261.96,79.072 L262.088,80 L263.176,80 L263.176,75.216 C263.176,73.296 262.36,72.032 260.472,72.032 C259.224,72.032 258.136,72.56 257.416,73.04 L257.928,73.936 C258.536,73.536 259.352,73.136 260.248,73.136 C261.512,73.136 261.832,74.08 261.848,75.056 C258.52,75.424 257.08,76.256 257.08,77.984 C257.08,79.392 258.056,80.192 259.352,80.192 Z M259.72,79.104 C258.968,79.104 258.376,78.768 258.376,77.904 C258.376,76.896 259.224,76.304 261.848,76 L261.848,78.112 C261.096,78.768 260.472,79.104 259.72,79.104 Z M266.312,80 L268.456,76.944 L269.928,76.944 L269.928,80 L271.224,80 L271.224,72.224 L268.488,72.224 C266.744,72.224 265.432,72.816 265.432,74.512 C265.432,75.76 266.2,76.464 267.208,76.768 L264.84,80 L266.312,80 Z M269.928,75.936 L268.712,75.936 C267.48,75.936 266.744,75.456 266.744,74.528 C266.744,73.648 267.48,73.264 268.712,73.264 L269.928,73.264 L269.928,75.936 Z M280.136,80.192 C281.064,80.192 281.944,79.84 282.648,79.2 L282.072,78.352 C281.608,78.768 280.968,79.088 280.248,79.088 C278.824,79.088 277.864,77.904 277.864,76.128 C277.864,74.336 278.888,73.136 280.296,73.136 C280.92,73.136 281.416,73.376 281.848,73.776 L282.504,72.944 C281.96,72.432 281.256,72.032 280.232,72.032 C278.232,72.032 276.488,73.52 276.488,76.128 C276.488,78.704 278.072,80.192 280.136,80.192 Z M287.048,80.192 C288.952,80.192 290.664,78.704 290.664,76.128 C290.664,73.52 288.952,72.032 287.048,72.032 C285.144,72.032 283.448,73.52 283.448,76.128 C283.448,78.704 285.144,80.192 287.048,80.192 Z M287.048,79.088 C285.72,79.088 284.824,77.904 284.824,76.128 C284.824,74.336 285.72,73.136 287.048,73.136 C288.392,73.136 289.288,74.336 289.288,76.128 C289.288,77.904 288.392,79.088 287.048,79.088 Z M295.8,80 C297.608,80 298.872,79.312 298.872,77.776 C298.872,76.656 298.12,76.112 297.256,75.92 L297.256,75.856 C298.056,75.616 298.552,75.056 298.552,74.192 C298.552,72.784 297.384,72.224 295.688,72.224 L292.696,72.224 L292.696,80 L295.8,80 Z M295.464,75.456 L293.976,75.456 L293.976,73.2 L295.544,73.2 C296.76,73.2 297.272,73.616 297.272,74.32 C297.272,75.024 296.76,75.456 295.464,75.456 Z M295.672,79.008 L293.976,79.008 L293.976,76.464 L295.576,76.464 C296.904,76.464 297.592,76.928 297.592,77.696 C297.592,78.528 296.968,79.008 295.672,79.008 Z M303.848,80.192 C305.752,80.192 307.464,78.704 307.464,76.128 C307.464,73.52 305.752,72.032 303.848,72.032 C301.944,72.032 300.248,73.52 300.248,76.128 C300.248,78.704 301.944,80.192 303.848,80.192 Z M303.848,79.088 C302.52,79.088 301.624,77.904 301.624,76.128 C301.624,74.336 302.52,73.136 303.848,73.136 C305.192,73.136 306.088,74.336 306.088,76.128 C306.088,77.904 305.192,79.088 303.848,79.088 Z M310.808,80 L310.808,76.496 L312.488,76.496 L314.52,80 L315.96,80 L313.464,75.904 L314.12,74.384 C314.52,73.488 314.84,73.36 315.24,73.36 C315.352,73.36 315.4,73.376 315.496,73.408 L315.736,72.16 C315.608,72.096 315.448,72.064 315.272,72.064 C314.424,72.064 313.832,72.32 313.208,73.696 L312.44,75.424 L310.808,75.424 L310.808,72.224 L309.496,72.224 L309.496,80 L310.808,80 Z M317.336,83.344 C318.888,83.344 319.704,82.176 320.248,80.64 L323.176,72.224 L321.88,72.224 L320.488,76.512 C320.28,77.2 320.056,78 319.848,78.704 L319.784,78.704 C319.528,77.984 319.272,77.184 319.016,76.512 L317.448,72.224 L316.072,72.224 L319.192,80.016 L319.016,80.592 C318.696,81.552 318.136,82.24 317.272,82.24 C317.08,82.24 316.888,82.208 316.696,82.144 L316.408,83.184 C316.664,83.28 316.968,83.344 317.336,83.344 Z M326.008,80 L326.008,73.296 L329.576,73.296 L329.576,80 L330.904,80 L330.904,72.224 L324.68,72.224 L324.68,80 L326.008,80 Z M334.856,80 L334.856,76.544 L338.584,76.544 L338.584,80 L339.912,80 L339.912,72.224 L338.584,72.224 L338.584,75.376 L334.856,75.376 L334.856,72.224 L333.528,72.224 L333.528,80 L334.856,80 Z M345.544,80.192 C347.448,80.192 349.16,78.704 349.16,76.128 C349.16,73.52 347.448,72.032 345.544,72.032 C343.64,72.032 341.944,73.52 341.944,76.128 C341.944,78.704 343.64,80.192 345.544,80.192 Z M345.544,79.088 C344.216,79.088 343.32,77.904 343.32,76.128 C343.32,74.336 344.216,73.136 345.544,73.136 C346.888,73.136 347.784,74.336 347.784,76.128 C347.784,77.904 346.888,79.088 345.544,79.088 Z M354.264,80.192 C355.192,80.192 356.072,79.84 356.776,79.2 L356.2,78.352 C355.736,78.768 355.096,79.088 354.376,79.088 C352.952,79.088 351.992,77.904 351.992,76.128 C351.992,74.336 353.016,73.136 354.424,73.136 C355.048,73.136 355.544,73.376 355.976,73.776 L356.632,72.944 C356.088,72.432 355.384,72.032 354.36,72.032 C352.36,72.032 350.616,73.52 350.616,76.128 C350.616,78.704 352.2,80.192 354.264,80.192 Z M361.368,80 L361.368,73.296 L363.96,73.296 L363.96,72.224 L357.432,72.224 L357.432,73.296 L360.04,73.296 L360.04,80 L361.368,80 Z M368.472,80 C370.312,80 371.56,79.248 371.56,77.52 C371.56,75.808 370.312,75.088 368.472,75.088 L367.016,75.088 L367.016,72.224 L365.688,72.224 L365.688,80 L368.472,80 Z M368.328,78.944 L367.016,78.944 L367.016,76.112 L368.328,76.112 C369.64,76.112 370.264,76.544 370.264,77.52 C370.264,78.496 369.64,78.944 368.328,78.944 Z" id="Генеральнаясовокупность" fill="#333333" fill-rule="nonzero"></path>
        <path d="M572.8,80 C575.136,80 576.768,78.992 576.768,76.928 C576.768,75.488 575.888,74.656 574.64,74.416 L574.64,74.352 C575.616,74.032 576.176,73.104 576.176,72.064 C576.176,70.224 574.688,69.504 572.56,69.504 L569.44,69.504 L569.44,80 L572.8,80 Z M572.336,73.968 L570.784,73.968 L570.784,70.576 L572.384,70.576 C574.016,70.576 574.848,71.024 574.848,72.24 C574.848,73.312 574.112,73.968 572.336,73.968 Z M572.608,78.928 L570.784,78.928 L570.784,74.992 L572.608,74.992 C574.432,74.992 575.44,75.584 575.44,76.88 C575.44,78.288 574.4,78.928 572.608,78.928 Z M581.136,80 C582.976,80 584.224,79.248 584.224,77.52 C584.224,75.808 582.976,75.088 581.136,75.088 L580.048,75.088 L580.048,72.224 L578.72,72.224 L578.72,80 L581.136,80 Z M586.896,80 L586.896,72.224 L585.568,72.224 L585.568,80 L586.896,80 Z M580.992,78.944 L580.048,78.944 L580.048,76.112 L580.992,76.112 C582.304,76.112 582.928,76.544 582.928,77.52 C582.928,78.496 582.304,78.944 580.992,78.944 Z M592.72,80.192 C594.624,80.192 596.144,78.624 596.144,76.144 C596.144,73.872 594.864,72.512 593.024,72.512 C592.048,72.512 591.088,72.96 590.4,73.808 C590.64,70.608 591.712,70.4 594.208,70.032 C594.864,69.936 595.408,69.792 595.824,69.52 L595.552,68.32 C595.072,68.544 594.8,68.624 593.936,68.752 C590.976,69.2 589.056,70.032 589.056,75.28 C589.056,78.416 590.4,80.192 592.72,80.192 Z M592.72,79.088 C591.136,79.088 590.336,77.776 590.336,75.536 L590.336,74.928 L590.336,74.928 C591.12,73.872 591.936,73.536 592.688,73.536 C594.032,73.536 594.768,74.544 594.768,76.144 C594.768,77.904 593.92,79.088 592.72,79.088 Z M601.248,80.192 C603.152,80.192 604.864,78.704 604.864,76.128 C604.864,73.52 603.152,72.032 601.248,72.032 C599.344,72.032 597.648,73.52 597.648,76.128 C597.648,78.704 599.344,80.192 601.248,80.192 Z M601.248,79.088 C599.92,79.088 599.024,77.904 599.024,76.128 C599.024,74.336 599.92,73.136 601.248,73.136 C602.592,73.136 603.488,74.336 603.488,76.128 C603.488,77.904 602.592,79.088 601.248,79.088 Z M608.224,83.28 L608.224,80.656 L608.192,79.296 C608.896,79.856 609.632,80.192 610.336,80.192 C612.112,80.192 613.712,78.64 613.712,76 C613.712,73.584 612.624,72.032 610.624,72.032 C609.728,72.032 608.848,72.528 608.144,73.12 L608.096,73.12 L607.984,72.224 L606.896,72.224 L606.896,83.28 L608.224,83.28 Z M610.112,79.072 C609.6,79.072 608.928,78.864 608.224,78.272 L608.224,74.208 C608.976,73.504 609.632,73.152 610.288,73.152 C611.744,73.152 612.336,74.288 612.336,76 C612.336,77.92 611.392,79.072 610.112,79.072 Z M617.088,80 L617.088,76.496 L618.768,76.496 L620.8,80 L622.24,80 L619.744,75.904 L620.4,74.384 C620.8,73.488 621.12,73.36 621.52,73.36 C621.632,73.36 621.68,73.376 621.776,73.408 L622.016,72.16 C621.888,72.096 621.728,72.064 621.552,72.064 C620.704,72.064 620.112,72.32 619.488,73.696 L618.72,75.424 L617.088,75.424 L617.088,72.224 L615.776,72.224 L615.776,80 L617.088,80 Z M625.328,80.192 C626.304,80.192 627.152,79.696 627.888,79.072 L627.936,79.072 L628.064,80 L629.152,80 L629.152,75.216 C629.152,73.296 628.336,72.032 626.448,72.032 C625.2,72.032 624.112,72.56 623.392,73.04 L623.904,73.936 C624.512,73.536 625.328,73.136 626.224,73.136 C627.488,73.136 627.808,74.08 627.824,75.056 C624.496,75.424 623.056,76.256 623.056,77.984 C623.056,79.392 624.032,80.192 625.328,80.192 Z M625.696,79.104 C624.944,79.104 624.352,78.768 624.352,77.904 C624.352,76.896 625.2,76.304 627.824,76 L627.824,78.112 C627.072,78.768 626.448,79.104 625.696,79.104 Z" id="Выборка" fill="#333333" fill-rule="nonzero"></path>
        <rect id="Rectangle-Copy-2" stroke="#F7931E" x="130.5" y="201.5" width="67" height="80" rx="6"></rect>
        <rect id="Rectangle-Copy-3" stroke="#636F80" x="358.5" y="201.5" width="67" height="80" rx="6"></rect>
        <rect id="Rectangle-Copy-4" stroke="#73B0DE" x="206.5" y="294.5" width="67" height="80" rx="6"></rect>
        <rect id="Rectangle-Copy-5" stroke="#636F80" x="206.5" y="108.5" width="67" height="80" rx="6"></rect>
        <path d="M167.024,166 L167.024,164.896 L164.928,164.896 L164.928,155.792 L163.904,155.792 C163.344,156.128 162.672,156.384 161.728,156.544 L161.728,157.408 L163.6,157.408 L163.6,164.896 L161.264,164.896 L161.264,166 L167.024,166 Z" id="1" fill="#FFFFFF" fill-rule="nonzero"></path>
        <path d="M163.744,260.192 C165.52,260.192 167.184,258.944 167.184,256.736 C167.184,254.528 165.76,253.536 164.032,253.536 C163.408,253.536 162.944,253.696 162.464,253.952 L162.736,250.944 L166.688,250.944 L166.688,249.792 L161.568,249.792 L161.232,254.704 L161.936,255.152 C162.544,254.752 162.976,254.544 163.68,254.544 C164.992,254.544 165.84,255.36 165.84,256.768 C165.84,258.192 164.864,259.088 163.616,259.088 C162.416,259.088 161.648,258.528 161.04,257.92 L160.4,258.8 C161.104,259.504 162.112,260.192 163.744,260.192 Z" id="5" fill="#FFFFFF" fill-rule="nonzero"></path>
        <path d="M637.744,189.192 C639.52,189.192 641.184,187.944 641.184,185.736 C641.184,183.528 639.76,182.536 638.032,182.536 C637.408,182.536 636.944,182.696 636.464,182.952 L636.736,179.944 L640.688,179.944 L640.688,178.792 L635.568,178.792 L635.232,183.704 L635.936,184.152 C636.544,183.752 636.976,183.544 637.68,183.544 C638.992,183.544 639.84,184.36 639.84,185.768 C639.84,187.192 638.864,188.088 637.616,188.088 C636.416,188.088 635.648,187.528 635.04,186.92 L634.4,187.8 C635.104,188.504 636.112,189.192 637.744,189.192 Z" id="5" fill="#FFFFFF" fill-rule="nonzero"></path>
        <path d="M163.28,353.192 C165.328,353.192 167.184,351.608 167.184,347.512 C167.184,344.232 165.664,342.6 163.648,342.6 C162.016,342.6 160.64,343.928 160.64,345.88 C160.64,347.976 161.776,349.032 163.536,349.032 C164.368,349.032 165.28,348.552 165.92,347.752 C165.856,350.984 164.672,352.088 163.232,352.088 C162.592,352.088 161.968,351.768 161.552,351.288 L160.816,352.12 C161.376,352.728 162.192,353.192 163.28,353.192 Z M163.76,348.04 C162.512,348.04 161.888,347.208 161.888,345.88 C161.888,344.536 162.656,343.656 163.648,343.656 C164.944,343.656 165.728,344.712 165.888,346.696 C165.248,347.64 164.432,348.04 163.76,348.04 Z" id="9" fill="#FFFFFF" fill-rule="nonzero"></path>
        <path d="M315.776,166.192 C317.648,166.192 319.152,165.088 319.152,163.28 C319.152,161.872 318.176,160.976 316.944,160.688 L316.944,160.624 C318.048,160.208 318.784,159.424 318.784,158.192 C318.784,156.544 317.504,155.6 315.728,155.6 C314.528,155.6 313.584,156.144 312.8,156.88 L313.504,157.712 C314.112,157.12 314.832,156.688 315.68,156.688 C316.768,156.688 317.44,157.312 317.44,158.288 C317.44,159.36 316.704,160.192 314.544,160.192 L314.544,161.2 C316.976,161.2 317.808,162.016 317.808,163.232 C317.808,164.368 316.928,165.088 315.696,165.088 C314.496,165.088 313.696,164.528 313.088,163.888 L312.416,164.752 C313.104,165.504 314.144,166.192 315.776,166.192 Z" id="3" fill="#FFFFFF" fill-rule="nonzero"></path>
        <path d="M316.096,260 C316.272,256.016 316.832,253.712 319.28,250.608 L319.28,249.792 L312.704,249.792 L312.704,250.944 L317.792,250.944 C315.728,253.76 314.912,256.16 314.736,260 L316.096,260 Z" id="7" fill="#FFFFFF" fill-rule="nonzero"></path>
        <path d="M315.024,353 L315.024,351.896 L312.928,351.896 L312.928,342.792 L311.904,342.792 C311.344,343.128 310.672,343.384 309.728,343.544 L309.728,344.408 L311.6,344.408 L311.6,351.896 L309.264,351.896 L309.264,353 L315.024,353 Z M322.976,353 L322.976,351.896 L320.88,351.896 L320.88,342.792 L319.856,342.792 C319.296,343.128 318.624,343.384 317.68,343.544 L317.68,344.408 L319.552,344.408 L319.552,351.896 L317.216,351.896 L317.216,353 L322.976,353 Z" id="11" fill="#FFFFFF" fill-rule="nonzero"></path>
        <path d="M243.232,166 L243.232,164.864 L240.176,164.864 C239.648,164.864 239.024,164.896 238.464,164.944 C240.944,162.416 242.736,160.576 242.736,158.592 C242.736,156.8 241.552,155.6 239.664,155.6 C238.352,155.6 237.44,156.224 236.592,157.184 L237.344,157.904 C237.92,157.232 238.656,156.688 239.504,156.688 C240.8,156.688 241.44,157.504 241.44,158.672 C241.44,160.32 239.68,162.208 236.64,165.184 L236.64,166 L243.232,166 Z" id="2" fill="#FFFFFF" fill-rule="nonzero"></path>
        <path d="M565.232,189 L565.232,187.864 L562.176,187.864 C561.648,187.864 561.024,187.896 560.464,187.944 C562.944,185.416 564.736,183.576 564.736,181.592 C564.736,179.8 563.552,178.6 561.664,178.6 C560.352,178.6 559.44,179.224 558.592,180.184 L559.344,180.904 C559.92,180.232 560.656,179.688 561.504,179.688 C562.8,179.688 563.44,180.504 563.44,181.672 C563.44,183.32 561.68,185.208 558.64,188.184 L558.64,189 L565.232,189 Z" id="2" fill="#FFFFFF" fill-rule="nonzero"></path>
        <path d="M240.288,260.192 C241.936,260.192 243.312,258.864 243.312,256.912 C243.312,254.816 242.176,253.76 240.4,253.76 C239.568,253.76 238.656,254.272 238.016,255.072 C238.064,251.824 239.28,250.704 240.704,250.704 C241.344,250.704 241.984,251.024 242.384,251.52 L243.12,250.688 C242.56,250.064 241.76,249.6 240.656,249.6 C238.624,249.6 236.768,251.184 236.768,255.28 C236.768,258.56 238.288,260.192 240.288,260.192 Z M240.288,259.152 C239.008,259.152 238.224,258.096 238.048,256.112 C238.688,255.152 239.52,254.752 240.176,254.752 C241.44,254.752 242.064,255.584 242.064,256.912 C242.064,258.256 241.296,259.152 240.288,259.152 Z" id="6" fill="#FFFFFF" fill-rule="nonzero"></path>
        <path d="M239.024,353 L239.024,351.896 L236.928,351.896 L236.928,342.792 L235.904,342.792 C235.344,343.128 234.672,343.384 233.728,343.544 L233.728,344.408 L235.6,344.408 L235.6,351.896 L233.264,351.896 L233.264,353 L239.024,353 Z M243.936,353.192 C245.968,353.192 247.2,351.288 247.2,347.864 C247.2,344.44 245.968,342.6 243.936,342.6 C241.888,342.6 240.656,344.44 240.656,347.864 C240.656,351.288 241.888,353.192 243.936,353.192 Z M243.936,352.12 C242.752,352.12 241.952,350.856 241.952,347.864 C241.952,344.872 242.752,343.672 243.936,343.672 C245.12,343.672 245.92,344.872 245.92,347.864 C245.92,350.856 245.12,352.12 243.936,352.12 Z" id="10" fill="#FFFFFF" fill-rule="nonzero"></path>
        <path d="M637.024,290 L637.024,288.896 L634.928,288.896 L634.928,279.792 L633.904,279.792 C633.344,280.128 632.672,280.384 631.728,280.544 L631.728,281.408 L633.6,281.408 L633.6,288.896 L631.264,288.896 L631.264,290 L637.024,290 Z M641.936,290.192 C643.968,290.192 645.2,288.288 645.2,284.864 C645.2,281.44 643.968,279.6 641.936,279.6 C639.888,279.6 638.656,281.44 638.656,284.864 C638.656,288.288 639.888,290.192 641.936,290.192 Z M641.936,289.12 C640.752,289.12 639.952,287.856 639.952,284.864 C639.952,281.872 640.752,280.672 641.936,280.672 C643.12,280.672 643.92,281.872 643.92,284.864 C643.92,287.856 643.12,289.12 641.936,289.12 Z" id="10" fill="#FFFFFF" fill-rule="nonzero"></path>
        <path d="M394.112,166 L394.112,163.184 L395.504,163.184 L395.504,162.128 L394.112,162.128 L394.112,155.792 L392.64,155.792 L388.272,162.304 L388.272,163.184 L392.864,163.184 L392.864,166 L394.112,166 Z M392.864,162.128 L389.664,162.128 L392.048,158.656 C392.336,158.144 392.624,157.696 392.88,157.216 L392.944,157.216 C392.912,157.76 392.864,158.64 392.864,159.168 L392.864,162.128 Z" id="4" fill="#FFFFFF" fill-rule="nonzero"></path>
        <path d="M392,260.192 C393.984,260.192 395.296,258.992 395.296,257.472 C395.296,256.096 394.432,255.376 393.52,254.848 L393.52,254.784 C394.16,254.304 394.928,253.392 394.928,252.32 C394.928,250.736 393.824,249.6 392.048,249.6 C390.4,249.6 389.152,250.656 389.152,252.224 C389.152,253.296 389.824,254.048 390.576,254.576 L390.576,254.64 C389.616,255.152 388.656,256.064 388.656,257.392 C388.656,259.008 390.08,260.192 392,260.192 Z M392.72,254.432 C391.488,253.952 390.368,253.44 390.368,252.224 C390.368,251.232 391.072,250.592 392.016,250.592 C393.136,250.592 393.792,251.392 393.792,252.384 C393.792,253.136 393.408,253.824 392.72,254.432 Z M392.032,259.2 C390.784,259.2 389.856,258.384 389.856,257.264 C389.856,256.336 390.464,255.584 391.264,255.056 C392.736,255.648 394.032,256.112 394.032,257.424 C394.032,258.48 393.216,259.2 392.032,259.2 Z" id="8" fill="#FFFFFF" fill-rule="nonzero"></path>
        <path d="M562,290.192 C563.984,290.192 565.296,288.992 565.296,287.472 C565.296,286.096 564.432,285.376 563.52,284.848 L563.52,284.784 C564.16,284.304 564.928,283.392 564.928,282.32 C564.928,280.736 563.824,279.6 562.048,279.6 C560.4,279.6 559.152,280.656 559.152,282.224 C559.152,283.296 559.824,284.048 560.576,284.576 L560.576,284.64 C559.616,285.152 558.656,286.064 558.656,287.392 C558.656,289.008 560.08,290.192 562,290.192 Z M562.72,284.432 C561.488,283.952 560.368,283.44 560.368,282.224 C560.368,281.232 561.072,280.592 562.016,280.592 C563.136,280.592 563.792,281.392 563.792,282.384 C563.792,283.136 563.408,283.824 562.72,284.432 Z M562.032,289.2 C560.784,289.2 559.856,288.384 559.856,287.264 C559.856,286.336 560.464,285.584 561.264,285.056 C562.736,285.648 564.032,286.112 564.032,287.424 C564.032,288.48 563.216,289.2 562.032,289.2 Z" id="8" fill="#FFFFFF" fill-rule="nonzero"></path>
        <path d="M391.024,353 L391.024,351.896 L388.928,351.896 L388.928,342.792 L387.904,342.792 C387.344,343.128 386.672,343.384 385.728,343.544 L385.728,344.408 L387.6,344.408 L387.6,351.896 L385.264,351.896 L385.264,353 L391.024,353 Z M399.184,353 L399.184,351.864 L396.128,351.864 C395.6,351.864 394.976,351.896 394.416,351.944 C396.896,349.416 398.688,347.576 398.688,345.592 C398.688,343.8 397.504,342.6 395.616,342.6 C394.304,342.6 393.392,343.224 392.544,344.184 L393.296,344.904 C393.872,344.232 394.608,343.688 395.456,343.688 C396.752,343.688 397.392,344.504 397.392,345.672 C397.392,347.32 395.632,349.208 392.592,352.184 L392.592,353 L399.184,353 Z" id="12" fill="#FFFFFF" fill-rule="nonzero"></path>
        <path id="Path-62" d="M539.009093,138.195416 L540.92,139.269 L542.952152,135.813473 L548.43106,144.253352 L538.391811,143.572551 L540.413,140.132 L538.522048,139.068793 C461.792542,96.4063176 358.923454,86.474081 275.686104,110.725679 L273.144203,111.478754 L272.855797,110.521246 C356.786977,85.2407699 461.255114,94.9628995 539.009093,138.195416 Z" fill="#636F80" fill-rule="nonzero"></path>
        <path id="Path-62-Copy-2" d="M424.292745,279.59466 C431.884144,285.077337 433.496996,286.211455 437.559673,288.780671 C448.271659,295.554873 459.042062,300.336217 471.541381,303.165916 C486.787422,306.617441 503.77817,306.866651 523.087151,303.344887 L523.577,303.253 L522.753551,299.353649 L532.489208,301.896675 L524.613392,308.159385 L523.784,304.232 L523.265484,304.328858 C503.826392,307.874204 486.700023,307.622961 471.32058,304.141235 C458.700942,301.284297 447.827701,296.4573 437.025188,289.625848 C433.01245,287.088214 431.377192,285.943505 424.116467,280.700849 L423.707255,280.40534 L424.292745,279.59466 Z" fill="#636F80" fill-rule="nonzero"></path>
        <path id="Path-62-Copy" d="M388.906366,187.940855 C425.585266,188.563587 450.041795,191.836212 480.004682,198.637722 C481.653384,199.011974 496.068458,202.363789 500.212466,203.277147 C533.802357,210.680504 560.395891,211.728567 607.646907,204.910719 L608.52,204.783 L607.91856,200.833386 L617.494281,203.924593 L609.275882,209.730446 L608.671,205.772 L607.788112,205.9007 C560.418026,212.735531 533.703769,211.682776 499.997228,204.253708 C495.846459,203.338861 481.426975,199.98602 479.783316,199.612913 C449.883907,192.825813 425.49468,189.562193 388.88939,188.940711 C341.730009,188.140042 280.377734,192.53976 198.552071,203.399761 L196.066232,203.730831 L195.933768,202.739643 C279.05028,191.631852 341.215107,187.131156 388.906366,187.940855 Z" fill="#F7931E" fill-rule="nonzero"></path>
        <path id="Path-62-Copy-3" d="M624.417221,308.724452 L619.387177,317.439305 L617.18,314.097 L615.855721,314.958706 C557.094419,352.997169 503.650105,374.278334 450.797027,382.522054 C407.285516,389.30873 366.943981,387.568823 311.396049,378.908913 C301.082981,377.301108 295.187536,376.310466 273.602393,372.610555 L272.915518,372.492811 L273.084482,371.507189 C295.227235,375.303089 301.135468,376.297211 311.550088,377.920848 C367.004805,386.566226 407.251009,388.302022 450.642916,381.534 C503.746374,373.251227 557.462803,351.765508 616.629355,313.264435 L614.427312,309.929329 L624.417221,308.724452 Z" fill="#73B0DE" fill-rule="nonzero"></path>
    </g>
</svg>